# xmcd
#
# Track frame offsets:
# 150
# 13745
# 28205
# 54630
# 73607
# 97479
# 128832
# 155482
# 185365
# 211267
# 225347
# 246160
# 278877
# 322567
#
# Disc length: 4544 seconds
#
#
# Revision: 0
# Processed by: cddbd v1.5.1PL2 Copyright (c) Steve Scherf et al.
# Submitted via: FreeRIP 2.92 
#
DISCID=c111be0e
DTITLE=Janis Joplin And Big Brother And The Holding Co. - Live At Winterland 1968
DYEAR=1968
DGENRE=Blues
TTITLE0=Down On Me
TTITLE1=Flower In The Sun
TTITLE2=I Need A Man To Love
TTITLE3=Bye Bye Baby
TTITLE4=Easy Rider
TTITLE5=Combination Of The Two
TTITLE6=Farewell Song
TTITLE7=Piece Of My Heart
TTITLE8=Catch Me Daddy
TTITLE9=Magic Of Love
TTITLE10=Summertime ( From " Porgy and Bess")
TTITLE11=light Is Faster Than Song
TTITLE12=Ball And Chain
TTITLE13=Down On Me
EXTD=L.Kepler(c) 2006
EXTT0=
EXTT1=
EXTT2=
EXTT3=
EXTT4=
EXTT5=
EXTT6=
EXTT7=
EXTT8=
EXTT9=
EXTT10=
EXTT11=
EXTT12=
EXTT13=
PLAYORDER=
